<?xml version="1.0" encoding="utf-8"?>
<!-- Generator: Adobe Illustrator 23.0.6, SVG Export Plug-In . SVG Version: 6.00 Build 0)  -->
<svg version="1.1" id="Layer_1" xmlns="http://www.w3.org/2000/svg" xmlns:xlink="http://www.w3.org/1999/xlink" x="0px" y="0px"
	 viewBox="0 0 65 50" style="enable-background:new 0 0 65 50;" xml:space="preserve">
<style type="text/css">
	.st0{fill:#07AED6;}
</style>
<g>
	<path class="st0" d="M56.7,23.1c0-0.1-0.1-0.2-0.1-0.2c0-0.1-0.1-0.1-0.2-0.1l-1.7-0.4c-0.1,0-0.1,0-0.2,0c-0.1,0-0.1,0-0.2,0.1
		c-0.1,0-0.1,0.1-0.2,0.2c-0.1,0.1-0.1,0.2-0.1,0.3l-2.5,7.9c0,0,0,0,0,0.1c0,0,0,0,0,0c0,0,0,0,0,0c0,0,0,0,0,0c0,0,0,0,0,0
		c0,0,0,0,0,0c0,0,0,0,0-0.1c0,0,0,0,0-0.1l-2.9-9.4c-0.1-0.2-0.1-0.3-0.2-0.4c-0.1-0.1-0.1-0.2-0.2-0.2c-0.1-0.1-0.1-0.1-0.2-0.1
		c-0.1,0-0.1,0-0.2-0.1c0,0,0,0,0,0c0,0,0,0,0,0c0,0,0,0,0,0c0,0,0,0,0,0l-2.3-0.5c-0.1,0-0.3-0.1-0.4,0c-0.1,0-0.2,0-0.3,0.1
		c-0.1,0.1-0.1,0.2-0.2,0.3c0,0.1-0.1,0.3-0.1,0.6v24.7c0,0.3,0,0.5,0.1,0.7c0,0.2,0.1,0.3,0.2,0.3c0.1,0.1,0.2,0.1,0.3,0.1
		c0.1,0,0.2,0,0.3,0c0,0,0,0,0,0c0,0,0,0,0,0c0,0,0,0,0,0c0,0,0,0,0,0l2.4-0.6c0.1,0,0.3-0.1,0.3-0.1c0.1-0.1,0.1-0.1,0.2-0.2
		c0-0.1,0.1-0.2,0.1-0.3c0-0.1,0-0.2,0-0.4V31.1c0,0,0-0.1,0-0.1c0,0,0-0.1,0-0.1c0,0,0,0,0-0.1c0,0,0,0,0,0c0,0,0,0,0,0
		c0,0,0,0,0,0c0,0,0,0,0,0.1c0,0,0,0.1,0,0.1l1.9,6.9c0,0.2,0.1,0.4,0.1,0.5c0,0.1,0.1,0.2,0.1,0.3c0,0.1,0.1,0.1,0.1,0.1
		c0.1,0,0.1,0,0.2,0l0.3,0c0.1,0,0.1,0,0.2,0c0,0,0.1-0.1,0.1-0.1c0-0.1,0.1-0.2,0.1-0.3c0-0.1,0.1-0.3,0.1-0.5l1.8-6.7
		c0,0,0-0.1,0-0.1c0,0,0-0.1,0-0.1c0,0,0,0,0,0c0,0,0,0,0,0c0,0,0,0,0,0c0,0,0,0,0,0.1c0,0,0,0.1,0,0.1c0,0,0,0.1,0,0.1v12.1
		c0,0.2,0,0.4,0,0.5c0,0.1,0.1,0.2,0.1,0.3c0.1,0.1,0.1,0.1,0.2,0.1c0.1,0,0.2,0,0.3,0l1.7-0.4c0.1,0,0.2,0,0.2-0.1
		c0.1,0,0.1-0.1,0.1-0.2c0-0.1,0-0.1,0.1-0.2c0-0.1,0-0.2,0-0.3v-19c0-0.2,0-0.3,0-0.4C56.7,23.3,56.7,23.2,56.7,23.1"/>
	<path class="st0" d="M64.6,41c0-0.1,0-0.2-0.1-0.3l-2.2-7.8l2.1-7.1c0-0.1,0.1-0.2,0.1-0.3c0-0.1,0-0.2,0-0.2c0-0.1,0-0.1-0.1-0.2
		c0,0-0.1-0.1-0.1-0.1l-1-0.2c-0.1,0-0.2,0-0.2,0c-0.1,0-0.1,0-0.2,0.1c0,0-0.1,0.1-0.1,0.2c0,0.1-0.1,0.2-0.1,0.4l-1.4,4.4
		l-1.4-5.2c0-0.2-0.1-0.3-0.1-0.5c-0.1-0.1-0.1-0.2-0.2-0.3c-0.1-0.1-0.1-0.1-0.2-0.2c-0.1,0-0.1-0.1-0.2-0.1l-1.7-0.4
		c-0.1,0-0.2,0-0.2,0c-0.1,0-0.1,0.1-0.1,0.1c0,0.1,0,0.2,0,0.3c0,0.1,0,0.3,0.1,0.4l2.8,9.2l-2.8,9.2c-0.1,0.2-0.1,0.4-0.1,0.5
		c0,0.1,0,0.2,0,0.3c0,0.1,0.1,0.1,0.1,0.1c0.1,0,0.1,0,0.3,0l1.4-0.3c0.1,0,0.1,0,0.2-0.1c0,0,0.1-0.1,0.1-0.2
		c0-0.1,0.1-0.2,0.1-0.3c0-0.1,0.1-0.2,0.1-0.4c0-0.1,0.1-0.5,0.3-1c0.2-0.6,0.4-1.3,0.6-2c0.2-0.7,0.4-1.4,0.5-1.9
		c0.1-0.5,0.2-0.8,0.2-0.8l1.4,4.9c0,0.1,0.1,0.2,0.1,0.3c0,0.1,0.1,0.1,0.1,0.2c0,0,0.1,0.1,0.1,0.1c0,0,0.1,0,0.2,0l1.3-0.3
		c0.1,0,0.1,0,0.2-0.1c0,0,0.1-0.1,0.1-0.2C64.6,41.2,64.6,41.1,64.6,41"/>
	<path class="st0" d="M44,20c0-0.1,0-0.2-0.1-0.3c0-0.1-0.1-0.2-0.2-0.2c-0.1-0.1-0.2-0.1-0.3-0.2c0,0-8.5-2.2-10.1-2.7
		c-0.2,0-0.7,0-0.7,0.8v31.4c0,0.2,0,0.3,0.1,0.5c0,0,0,0,0,0.1c0,0,0,0,0,0.1c0,0,0,0.1,0.1,0.1c0,0,0,0,0,0.1c0,0,0,0,0,0
		c0.1,0.1,0.2,0.1,0.3,0.1h0c0.1,0,0.2,0,0.3,0l0,0c0,0,0,0,0,0c0,0,0,0,0,0l3.5-0.9c0.1,0,0.1-0.1,0.2-0.1c0.1-0.1,0.1-0.1,0.2-0.2
		c0-0.1,0.1-0.2,0.1-0.3c0-0.1,0-0.3,0-0.5V37.5c0-0.2,0-0.3,0-0.4c0-0.1,0.1-0.2,0.1-0.3c0.1-0.1,0.1-0.2,0.2-0.2
		c0.1,0,0.2-0.1,0.3-0.1l3.7-0.2c0,0,0,0,0,0h0c0,0,0,0,0,0h0c0.1,0,0.2,0,0.3,0c0.1,0,0.2-0.1,0.3-0.1c0.1-0.1,0.2-0.2,0.2-0.3
		c0.1-0.1,0.1-0.3,0.1-0.6l0.1-3.5c0-0.1,0-0.2,0-0.3c0-0.1,0-0.2-0.1-0.3c-0.1-0.1-0.1-0.1-0.2-0.2c-0.1-0.1-0.2-0.1-0.4-0.1
		l-4.4-0.2c-0.1,0-0.2,0-0.2-0.1c-0.1,0-0.1-0.1-0.2-0.2c-0.1-0.1-0.1-0.2-0.1-0.3c0-0.1,0-0.3,0-0.5v-5.3c0-0.1,0-0.2,0-0.2
		c0-0.1,0.1-0.1,0.1-0.2c0.1-0.1,0.1-0.1,0.2-0.1c0.1,0,0.2,0,0.4,0l5,0.8c0.2,0,0.3,0,0.4,0c0.1,0,0.2-0.1,0.3-0.1
		c0.1-0.1,0.1-0.2,0.2-0.3c0-0.1,0-0.3,0-0.6v-3.3C44,20.2,44,20.1,44,20"/>
	<path class="st0" d="M31,49.7L31,49.7c0.1,0,0.2,0,0.3-0.1c0,0,0,0,0,0c0,0,0,0,0-0.1c0,0,0-0.1,0.1-0.1c0,0,0,0,0-0.1
		c0,0,0,0,0-0.1c0-0.1,0.1-0.3,0.1-0.5V17.4c0-0.6-0.5-0.8-0.7-0.7c-3.6,1-28,7.6-30.3,8.1c0,0-0.1,0-0.1,0.1c0,0-0.1,0.1-0.1,0.1
		v16.6c0,0.1,0,0.1,0.1,0.2c0,0,0.1,0.1,0.1,0.1L31,49.7C30.9,49.7,31,49.7,31,49.7 M3.4,41.1l-1.6-0.4v-3L3.4,38V41.1z M3.4,37
		l-1.6-0.2v-3l1.6,0V37z M3.4,33l-1.6,0v-3l1.6-0.2V33z M3.4,28.9l-1.6,0.2v-3l1.6-0.4V28.9z M6,41.8l-1.9-0.5v-3.3L6,38.4V41.8z
		 M6,37.4l-1.9-0.2v-3.2l1.9,0V37.4z M6,32.9l-1.9,0v-3.3L6,29.5V32.9z M6,28.5l-1.9,0.3v-3.2L6,25.1V28.5z M9,42.6L6.7,42v-3.5
		L9,38.8V42.6z M9,37.7l-2.3-0.3V34L9,34V37.7z M9,32.9l-2.3,0v-3.5L9,29.2V32.9z M9,28.1l-2.3,0.3v-3.5L9,24.4V28.1z M12.6,32.9
		l-2.7,0v-3.8l2.7-0.3V32.9z M12.6,27.6L9.9,28v-3.8l2.7-0.6V27.6z M17,44.5l-3.3-0.8v-4.2L17,40V44.5z M17,38.7l-3.3-0.4v-4.2
		l3.3,0.1V38.7z M17,32.9l-3.3,0v-4.2l3.3-0.3V32.9z M17,27l-3.3,0.4v-4.2l3.3-0.8V27z M22.3,45.9l-4.1-1v-4.6l4.1,0.6V45.9z
		 M22.3,39.3l-4.1-0.5v-4.6l4.1,0.1V39.3z M22.3,32.8l-4.1,0v-4.6l4.1-0.4V32.8z M22.3,26.3l-4.1,0.5v-4.6l4.1-0.9V26.3z M29.1,47.5
		l-5.3-1.3v-5.1l5.3,0.8V47.5z M29.1,40.1l-5.3-0.6v-5.1l5.3,0.1V40.1z M29.1,32.8l-5.3,0v-5.1l5.3-0.5V32.8z M29.1,25.5l-5.3,0.7
		V21l5.3-1.2V25.5z"/>
	<path class="st0" d="M59.2,17c-1.3-2.5-3.9-3.9-6.6-3.8c-0.3-1.2-0.7-2.4-1.3-3.5c-2.8-5.1-8.5-7.7-14.1-6.4
		C34,0.1,28.9-0.7,24.9,1.6c-2,1.1-3.5,2.9-4.4,5c-2.1-0.5-4.2-0.1-6.1,0.9C11.7,9,10,11.9,10,15.1c-1.2,0.2-2.2,0.7-3.1,1.6
		c-1,1.1-1.6,2.5-1.6,4c0,0,0,0,0,0.1c0,0,0,0,0,0.1c0,0.3,0,0.7,0.1,1c0,0,0,0,0,0C5.5,21.9,5.6,22,5.7,22l1.4-0.4h0
		c0.1,0,0.2-0.2,0.2-0.3c0-0.2,0-0.8,0-1c0.2-1.6,1.3-3,3.4-3c0.5,0,1,0.1,1.4,0.3C12.1,17,12,16.5,12,16c0-0.5,0.1-1.1,0.2-1.6
		c0.3-1.3,1-2.5,2-3.3c1.2-1.1,2.8-1.8,4.5-1.8c1,0,1.9,0.2,2.8,0.6c1.2-3.6,4.5-6.2,8.4-6.2c2.7,0,5.1,1.2,6.8,3.2l0.4-0.1
		c0,0,0,0,0,0c1-0.3,2.1-0.5,3.2-0.5c5.5,0,10.2,4.3,10.7,9.7l0,0c0.6-0.3,1.4-0.6,2.3-0.6c3.2,0,5.3,3.2,4.7,5.7c0,0,0,0,0,0
		c-0.1,0.2,0,0.4,0.2,0.4c0,0,0,0,0,0l1.3,0.3h0c0.2,0.1,0.4,0,0.4-0.2c0,0,0,0,0-0.1c0.1-0.4,0.1-0.8,0.1-1.2
		C60.1,19.3,59.8,18.1,59.2,17"/>
</g>
</svg>
