<svg xmlns="http://www.w3.org/2000/svg" width="130.323" height="112.489" viewBox="0 0 130.323 112.489">
  <g id="Group_216" data-name="Group 216" transform="translate(-188.75 -165.331)">
    <path id="Path_363" data-name="Path 363" d="M297.948,203.162V230.8l-47.805,23.9L199.35,230.8V203.443" transform="translate(5.589 21.868)" fill="none" stroke="#303030" stroke-linecap="round" stroke-linejoin="round" stroke-width="2.5"/>
    <path id="Path_364" data-name="Path 364" d="M199.35,186.8l50.793,20.915L297.948,186.8" transform="translate(5.589 12.087)" fill="none" stroke="#303030" stroke-linecap="round" stroke-linejoin="round" stroke-width="2.5"/>
    <line id="Line_20" data-name="Line 20" y2="56.769" transform="translate(255.732 219.801)" fill="none" stroke="#303030" stroke-linecap="round" stroke-linejoin="round" stroke-width="2.5"/>
    <path id="Path_365" data-name="Path 365" d="M255.732,207.715l-14.939,22.409L190,206.221,204.939,186.8" transform="translate(0 12.087)" fill="none" stroke="#303030" stroke-linecap="round" stroke-linejoin="round" stroke-width="2.5"/>
    <path id="Path_366" data-name="Path 366" d="M278.945,186.8l13.445,19.421-44.817,22.409-16.433-20.915" transform="translate(24.593 12.087)" fill="none" stroke="#303030" stroke-linecap="round" stroke-linejoin="round" stroke-width="2.5"/>
    <line id="Line_21" data-name="Line 21" y2="19.756" transform="translate(254.238 191.977)" stroke-dasharray="0.397 4.967" stroke="#303030" stroke-linecap="round" stroke-linejoin="round" stroke-width="2.5" fill="none"/>
    <path id="Path_367" data-name="Path 367" d="M253.994,182.454l-14.286-15.873-49.3,16.433,14.286,15.873" transform="translate(0.245 0)" fill="none" stroke="#303030" stroke-linecap="round" stroke-linejoin="round" stroke-width="2.5"/>
    <path id="Path_368" data-name="Path 368" d="M248.649,182.454l14.286-15.873,49.3,16.433-14.285,15.873-49.3-16.433-49.3,16.433" transform="translate(5.589 0)" fill="none" stroke="#303030" stroke-linecap="round" stroke-linejoin="round" stroke-width="2.5"/>
  </g>
</svg>
